<svg width="48" height="48" viewBox="0 0 48 48" fill="none" xmlns="http://www.w3.org/2000/svg">
<path d="M27.1387 16.3413H29.2795C29.8235 16.34 30.3448 16.123 30.7291 15.7379C31.1133 15.3527 31.3291 14.8309 31.3291 14.2869V12.1365C31.3297 11.8667 31.2772 11.5994 31.1746 11.3499C31.0719 11.1004 30.9211 10.8736 30.7308 10.6824C30.5404 10.4912 30.3143 10.3393 30.0653 10.2355C29.8163 10.1317 29.5493 10.0779 29.2795 10.0773H27.1387C26.5955 10.0785 26.0749 10.2949 25.6908 10.679C25.3067 11.0631 25.0904 11.5837 25.0891 12.1269V14.2773C25.0878 14.5475 25.1399 14.8152 25.2423 15.0653C25.3446 15.3153 25.4953 15.5427 25.6857 15.7345C25.8761 15.9262 26.1024 16.0785 26.3518 16.1826C26.6011 16.2867 26.8685 16.3406 27.1387 16.3413ZM26.5291 12.1365C26.5278 12.0556 26.5427 11.9753 26.5727 11.9002C26.6028 11.8252 26.6475 11.7568 26.7042 11.6992C26.761 11.6416 26.8286 11.5958 26.9032 11.5646C26.9778 11.5333 27.0578 11.5173 27.1387 11.5173H29.2795C29.4412 11.5173 29.5962 11.5815 29.7105 11.6958C29.8249 11.8101 29.8891 11.9652 29.8891 12.1269V14.2773C29.891 14.3585 29.8767 14.4393 29.8469 14.515C29.8171 14.5906 29.7725 14.6595 29.7157 14.7177C29.6589 14.7758 29.5911 14.822 29.5162 14.8535C29.4412 14.8851 29.3608 14.9013 29.2795 14.9013H27.1387C27.0582 14.9013 26.9786 14.8853 26.9043 14.8544C26.83 14.8235 26.7626 14.7781 26.7059 14.721C26.6493 14.6639 26.6045 14.5961 26.5741 14.5216C26.5438 14.4471 26.5285 14.3673 26.5291 14.2869V12.1365ZM18.1435 18.9765H15.9931C15.7239 18.9765 15.4574 19.0295 15.2087 19.1325C14.9601 19.2355 14.7341 19.3865 14.5438 19.5768C14.3535 19.7671 14.2025 19.993 14.0995 20.2417C13.9965 20.4904 13.9435 20.7569 13.9435 21.0261V23.1765C13.9435 23.7201 14.1594 24.2414 14.5438 24.6258C14.9282 25.0101 15.4495 25.2261 15.9931 25.2261H18.1435C18.6875 25.2261 19.2093 25.0103 19.5945 24.626C19.9796 24.2418 20.1966 23.7205 20.1979 23.1765V21.0261C20.1966 20.482 19.9796 19.9607 19.5945 19.5765C19.2093 19.1923 18.6875 18.9765 18.1435 18.9765ZM18.7579 23.1765C18.7579 23.2569 18.742 23.3366 18.711 23.4109C18.6801 23.4851 18.6348 23.5526 18.5777 23.6092C18.5205 23.6659 18.4528 23.7107 18.3783 23.741C18.3037 23.7714 18.224 23.7867 18.1435 23.7861H15.9931C15.913 23.7861 15.8338 23.7703 15.7598 23.7397C15.6859 23.709 15.6187 23.6641 15.562 23.6075C15.5054 23.5509 15.4605 23.4837 15.4299 23.4097C15.3993 23.3358 15.3835 23.2565 15.3835 23.1765V21.0261C15.3835 20.946 15.3993 20.8667 15.4299 20.7928C15.4605 20.7188 15.5054 20.6516 15.562 20.595C15.6187 20.5384 15.6859 20.4935 15.7598 20.4629C15.8338 20.4322 15.913 20.4165 15.9931 20.4165H18.1435C18.224 20.4158 18.3037 20.4311 18.3783 20.4615C18.4528 20.4918 18.5205 20.5366 18.5777 20.5933C18.6348 20.65 18.6801 20.7174 18.711 20.7917C18.742 20.8659 18.7579 20.9456 18.7579 21.0261V23.1765ZM23.8939 25.7253C23.2759 25.7253 22.6717 25.9085 22.1579 26.2519C21.644 26.5952 21.2435 27.0833 21.007 27.6543C20.7705 28.2252 20.7086 28.8535 20.8291 29.4597C20.9497 30.0658 21.2473 30.6226 21.6843 31.0596C22.1213 31.4966 22.6781 31.7943 23.2843 31.9148C23.8904 32.0354 24.5187 31.9735 25.0897 31.737C25.6607 31.5005 26.1487 31.1 26.4921 30.5861C26.8354 30.0722 27.0187 29.4681 27.0187 28.8501C27.0174 28.0217 26.6878 27.2276 26.1021 26.6419C25.5163 26.0562 24.7223 25.7265 23.8939 25.7253ZM23.8939 30.5253C23.5607 30.5253 23.2349 30.4265 22.9579 30.2413C22.6808 30.0562 22.4649 29.7931 22.3373 29.4852C22.2098 29.1774 22.1765 28.8386 22.2415 28.5118C22.3065 28.185 22.4669 27.8848 22.7026 27.6491C22.9382 27.4135 23.2384 27.253 23.5652 27.188C23.892 27.123 24.2308 27.1564 24.5386 27.2839C24.8465 27.4114 25.1096 27.6274 25.2948 27.9044C25.4799 28.1815 25.5787 28.5072 25.5787 28.8405C25.5793 29.0623 25.5363 29.2822 25.4519 29.4874C25.3676 29.6926 25.2437 29.8793 25.0872 30.0366C24.9308 30.1939 24.7449 30.3189 24.5401 30.4044C24.3354 30.4899 24.1158 30.5342 23.8939 30.5349V30.5253ZM19.7083 28.8405C19.7083 29.0314 19.6324 29.2146 19.4974 29.3496C19.3624 29.4846 19.1793 29.5605 18.9883 29.5605H17.0251C16.8341 29.5605 16.651 29.4846 16.516 29.3496C16.381 29.2146 16.3051 29.0314 16.3051 28.8405V27.1989C16.3051 27.0079 16.381 26.8248 16.516 26.6898C16.651 26.5547 16.8341 26.4789 17.0251 26.4789C17.2161 26.4789 17.3992 26.5547 17.5342 26.6898C17.6692 26.8248 17.7451 27.0079 17.7451 27.1989V28.1301H18.9883C19.1793 28.1301 19.3624 28.2059 19.4974 28.341C19.6324 28.476 19.7083 28.6591 19.7083 28.8501V28.8405ZM16.1947 17.1477V13.2117C16.1947 13.0207 16.2706 12.8376 16.4056 12.7025C16.5406 12.5675 16.7237 12.4917 16.9147 12.4917H22.7227C22.9137 12.4917 23.0968 12.5675 23.2318 12.7025C23.3668 12.8376 23.4427 13.0207 23.4427 13.2117C23.4427 13.4026 23.3668 13.5858 23.2318 13.7208C23.0968 13.8558 22.9137 13.9317 22.7227 13.9317H17.6347V17.1477C17.6347 17.3386 17.5588 17.5218 17.4238 17.6568C17.2888 17.7918 17.1057 17.8677 16.9147 17.8677C16.7237 17.8677 16.5406 17.7918 16.4056 17.6568C16.2706 17.5218 16.1947 17.3386 16.1947 17.1477ZM31.6795 21.2517H24.5419V23.8725C24.5419 24.0634 24.466 24.2466 24.331 24.3816C24.196 24.5166 24.0129 24.5925 23.8219 24.5925C23.6309 24.5925 23.4478 24.5166 23.3128 24.3816C23.1778 24.2466 23.1019 24.0634 23.1019 23.8725V20.5125C23.1019 20.3215 23.1778 20.1384 23.3128 20.0033C23.4478 19.8683 23.6309 19.7925 23.8219 19.7925H27.4939V17.9781C27.4939 17.7871 27.5698 17.604 27.7048 17.469C27.8398 17.3339 28.0229 17.2581 28.2139 17.2581C28.4049 17.2581 28.588 17.3339 28.723 17.469C28.858 17.604 28.9339 17.7871 28.9339 17.9781V19.8117H32.3899C32.5809 19.8117 32.764 19.8875 32.899 20.0226C33.034 20.1576 33.1099 20.3407 33.1099 20.5317V23.8917C33.1099 24.0826 33.034 24.2658 32.899 24.4008C32.764 24.5358 32.5809 24.6117 32.3899 24.6117C32.1989 24.6117 32.0158 24.5358 31.8808 24.4008C31.7458 24.2658 31.6699 24.0826 31.6699 23.8917V21.2517H31.6795ZM46.0795 15.9045C45.818 15.2036 45.3548 14.5958 44.7483 14.1578C44.1418 13.7199 43.4191 13.4714 42.6716 13.4437C41.924 13.4159 41.1849 13.6102 40.5476 14.0021C39.9104 14.3939 39.4034 14.9657 39.0907 15.6453L38.7115 16.4613V10.8837C38.7102 10.0031 38.3599 9.15899 37.7372 8.53634C37.1146 7.9137 36.2705 7.56334 35.3899 7.56207H12.4171C12.2438 6.19892 11.5564 4.95343 10.4955 4.08014C9.43454 3.20686 8.08015 2.77171 6.70911 2.86365C5.33807 2.95558 4.0539 3.56765 3.11905 4.57476C2.18421 5.58187 1.66928 6.90799 1.6795 8.28207V29.3205C1.67715 29.3508 1.67715 29.3813 1.6795 29.4117C1.70715 30.8216 2.28674 32.1645 3.29376 33.1518C4.30077 34.139 5.65486 34.6919 7.0651 34.6917H30.3403L29.3563 36.8277V36.8757C29.3536 36.8932 29.3536 36.911 29.3563 36.9285C29.346 36.9647 29.338 37.0016 29.3323 37.0389C29.3323 37.0389 29.3323 37.0389 29.3323 37.0725L28.8523 43.3125C28.8338 43.5409 28.8626 43.7706 28.9367 43.9874C29.0108 44.2042 29.1288 44.4034 29.2832 44.5727C29.4376 44.742 29.6252 44.8777 29.8343 44.9714C30.0434 45.0651 30.2696 45.1147 30.4987 45.1173C30.7174 45.119 30.9343 45.0774 31.137 44.9951C31.3396 44.9127 31.524 44.7911 31.6795 44.6373L36.1003 40.2309L36.1435 40.1781L36.2155 40.0725V40.0437L43.5307 24.1077L44.9707 20.9541L45.9307 18.8325C46.1504 18.3793 46.2768 17.8866 46.3024 17.3836C46.3279 16.8806 46.2521 16.3776 46.0795 15.9045ZM40.3963 16.2453C40.6564 15.6804 41.13 15.2418 41.7132 15.0258C42.2963 14.8098 42.9414 14.8341 43.5067 15.0933C44.0713 15.3524 44.5098 15.8251 44.7258 16.4075C44.9419 16.9899 44.9177 17.6343 44.6587 18.1989L43.9867 19.6389L39.7291 17.7093L40.3963 16.2453ZM39.1243 19.0149L41.2555 19.9749L43.3867 20.9349L42.5419 22.7781L38.2795 20.8245L39.1243 19.0149ZM7.5643 25.3941C8.52351 25.5103 9.40686 25.974 10.0472 26.6976C10.6876 27.4211 11.0406 28.3542 11.0395 29.3205C11.0347 29.5396 10.9859 29.7556 10.896 29.9555C10.8061 30.1555 10.6769 30.3353 10.5162 30.4844C10.3555 30.6335 10.1665 30.7488 9.96034 30.8234C9.75422 30.898 9.53521 30.9305 9.3163 30.9189C9.09876 30.9223 8.8828 30.8815 8.68148 30.799C8.48017 30.7164 8.29769 30.5939 8.1451 30.4389C7.73467 29.9454 7.5301 29.3128 7.5739 28.6725L7.5643 25.3941ZM3.1195 8.28207C3.1195 7.76266 3.2218 7.24834 3.42057 6.76848C3.61934 6.28861 3.91067 5.85259 4.27795 5.48532C4.64522 5.11804 5.08124 4.82671 5.56111 4.62794C6.04098 4.42917 6.55529 4.32687 7.0747 4.32687C7.5941 4.32687 8.10842 4.42917 8.58829 4.62794C9.06815 4.82671 9.50417 5.11804 9.87145 5.48532C10.2387 5.85259 10.5301 6.28861 10.7288 6.76848C10.9276 7.24834 11.0299 7.76266 11.0299 8.28207V25.6485C10.5215 25.1098 9.90849 24.6806 9.22837 24.3873C8.54825 24.094 7.81538 23.9427 7.0747 23.9427C6.33402 23.9427 5.60115 24.094 4.92103 24.3873C4.2409 24.6806 3.62786 25.1098 3.1195 25.6485V8.28207ZM7.0747 33.2757C6.10847 33.2789 5.17458 32.9278 4.44969 32.2889C3.7248 31.6501 3.2592 30.7677 3.14095 29.8087C3.02271 28.8498 3.26002 27.8807 3.80801 27.0849C4.35599 26.2891 5.17664 25.7217 6.1147 25.4901V28.6725C6.05846 29.683 6.40347 30.6749 7.0747 31.4325C7.36135 31.729 7.70537 31.964 8.0858 32.1233C8.46623 32.2826 8.8751 32.3627 9.2875 32.3589C9.69793 32.3743 10.1073 32.3074 10.4914 32.162C10.8756 32.0167 11.2268 31.796 11.5243 31.5128C11.8217 31.2296 12.0595 30.8898 12.2236 30.5132C12.3876 30.1367 12.4747 29.7312 12.4795 29.3205V9.00207H35.3947C35.8933 9.00333 36.3712 9.20198 36.7238 9.55457C37.0764 9.90717 37.275 10.385 37.2763 10.8837V19.6005L36.6763 20.9157L34.3675 25.9413C34.0873 25.8007 33.7785 25.7268 33.4651 25.7253H31.3147C30.7736 25.7291 30.256 25.9467 29.8747 26.3306C29.4934 26.7146 29.2795 27.2338 29.2795 27.7749V29.9253C29.2795 30.4689 29.4954 30.9902 29.8798 31.3746C30.2642 31.7589 30.7855 31.9749 31.3291 31.9749H31.6123L31.0123 33.2757H7.0747ZM33.7627 27.2517L32.2555 30.5349H31.2955C31.1397 30.5263 30.9932 30.4583 30.886 30.3449C30.7789 30.2315 30.7193 30.0813 30.7195 29.9253V27.7749C30.7195 27.6132 30.7837 27.4581 30.898 27.3438C31.0124 27.2295 31.1674 27.1653 31.3291 27.1653H33.4795C33.5795 27.1705 33.6768 27.2002 33.7627 27.2517ZM30.6523 43.6005C30.6214 43.6344 30.5801 43.657 30.5349 43.6649C30.4897 43.6727 30.4432 43.6652 30.4027 43.6437C30.3603 43.627 30.3246 43.5968 30.3011 43.5577C30.2777 43.5187 30.2678 43.4729 30.2731 43.4277L30.6523 38.2389L34.3387 39.9285L30.6523 43.6005ZM35.2267 38.7525L30.9691 36.7989L37.6891 22.1685L39.8203 23.1285L41.9467 24.0885L35.2267 38.7525Z" fill="#333533"/>
</svg>
